<?xml version="1.0" encoding="UTF-8"?><svg id="Layer_1" xmlns="http://www.w3.org/2000/svg" viewBox="0 0 342.24 367.65"><defs><style>.cls-1{fill:none;stroke:#fff;stroke-miterlimit:10;stroke-width:3px;}</style></defs><path class="cls-1" d="M13.07,154.18c26.13,93.61,78.48,211.98,180.1,211.98,6.05,0,12.26-.42,18.67-1.29,57.59-7.82,91.66-54.06,110.15-111.31,5.57-17.22,9.73-35.45,12.73-53.96,1.31-8.3,2.37-16.7,3.24-25.05,2.47-23.43,3.19-46.8,2.57-68.47-.43-15.27-1.98-29.63-4.26-43.03-1.16-6.92-2.52-13.6-4.07-19.94-.97-4.39-2.08-8.68-3.24-12.79-5-17.77-21.24-28.82-38.47-28.82-6.13,0-12.39,1.4-18.3,4.39-2.18,1.1-4.45,2.19-6.78,3.34-28.55,13.65-66.3,26.91-111.99,31.68-12.22,1.27-24,1.83-35.25,1.83-25.82,0-48.9-2.94-68.42-6.89-2.79-.56-5.56-.83-8.27-.83-21.88,0-40.41,17.52-39.98,40.15,.48,23.38,3.53,50.24,11.57,79.01Zm194.07-17.99c1.4-5.96,10.12-27.1,37.7-32.73,4.06-.83,7.89-1.21,11.5-1.21,3.83,0,7.42,.42,10.76,1.16,19.79,4.34,30.59,19.66,32.72,23.95,1.46,3.01-.75,6.37-3.71,6.37-.37,0-.75-.05-1.13-.16-6.1-1.72-12.92-3.15-20.42-4.06-1.31-.14-2.71-.33-4.11-.48-4.35-.47-9.06-.88-14.11-.88-7.74,0-16.27,.97-25.53,4.17-6.87,2.39-12.73,5.49-17.57,8.68-.71,.46-1.46,.66-2.17,.66-2.48,0-4.6-2.48-3.93-5.48Zm-25.35,111.39c3.26,0,6.63-.11,10.1-.37,40.97-2.98,65.14-34.99,74.98-34.99,.87,0,1.62,.25,2.26,.78,6.29,5.3-7.5,30.25-8.81,32.63-11.91,21.47-29.28,33.21-38.77,38.69-10.67,4.58-20.81,5.83-28.95,5.83-6.88,0-12.33-.9-15.48-1.44-4.11-.72-27.34-5.11-45.78-24.57-10.31-10.97-19.41-27-15.78-30.73,.48-.48,1.13-.69,1.94-.69,3.72,0,10.93,4.44,21.53,8.28,0,0,17.83,6.57,42.74,6.57ZM54.02,144.49c1.69-5.39,4.94-12.07,11.08-17.84,9.34-8.78,19.94-10.5,25.75-11.4,1.79-.28,5.69-.9,10.76-.9,8.79,0,21.09,1.88,31.93,10.68,6.82,5.58,10.94,12.12,13.41,17.51,1.25,2.8-.95,5.67-3.79,5.67-.45,0-.92-.07-1.39-.23-6-2-12.73-3.77-20.13-5.11-7.02-1.26-15.11-2.72-24.26-2.72-6.05,0-12.57,.64-19.54,2.38-7.02,1.72-13.02,4.25-18,6.82-.65,.34-1.31,.49-1.95,.49-2.59,0-4.75-2.53-3.86-5.36Z"/></svg>