<?xml version="1.0" encoding="UTF-8"?><svg id="Layer_1" xmlns="http://www.w3.org/2000/svg" viewBox="0 0 172.16 44.91"><defs><style>.cls-1{fill:#fff;}.cls-2{fill:#dc2626;}</style></defs><path class="cls-2" d="M134.15,18.34c3.03,11.24,9.1,25.46,20.89,25.46,.7,0,1.42-.05,2.17-.15,6.68-.94,10.63-6.49,12.78-13.37,.65-2.07,1.13-4.26,1.48-6.48,.15-1,.28-2.01,.38-3.01,.29-2.81,.37-5.62,.3-8.22-.05-1.83-.23-3.56-.49-5.17-.13-.83-.29-1.63-.47-2.4-.11-.53-.24-1.04-.38-1.54-.58-2.13-2.46-3.46-4.46-3.46-.71,0-1.44,.17-2.12,.53-.25,.13-.52,.26-.79,.4-3.31,1.64-7.69,3.23-12.99,3.81-1.42,.15-2.78,.22-4.09,.22-3,0-5.67-.35-7.94-.83-.32-.07-.64-.1-.96-.1-2.54,0-4.69,2.1-4.64,4.82,.06,2.81,.41,6.03,1.34,9.49Zm22.51-2.16c.16-.72,1.17-3.25,4.37-3.93,.47-.1,.92-.14,1.33-.14,.44,0,.86,.05,1.25,.14,2.3,.52,3.55,2.36,3.8,2.88,.17,.36-.09,.76-.43,.76-.04,0-.09,0-.13-.02-.71-.21-1.5-.38-2.37-.49-.15-.02-.31-.04-.48-.06-.51-.06-1.05-.11-1.64-.11-.9,0-1.89,.12-2.96,.5-.8,.29-1.48,.66-2.04,1.04-.08,.06-.17,.08-.25,.08-.29,0-.53-.3-.46-.66Zm-2.94,13.38c.38,0,.77-.01,1.17-.04,4.75-.36,7.56-4.2,8.7-4.2,.1,0,.19,.03,.26,.09,.73,.64-.87,3.63-1.02,3.92-1.38,2.58-3.4,3.99-4.5,4.65-1.24,.55-2.41,.7-3.36,.7-.8,0-1.43-.11-1.8-.17-.48-.09-3.17-.61-5.31-2.95-1.2-1.32-2.25-3.24-1.83-3.69,.06-.06,.13-.08,.23-.08,.43,0,1.27,.53,2.5,.99,0,0,2.07,.79,4.96,.79Zm-14.82-12.38c.2-.65,.57-1.45,1.29-2.14,1.08-1.05,2.31-1.26,2.99-1.37,.21-.03,.66-.11,1.25-.11,1.02,0,2.45,.23,3.7,1.28,.79,.67,1.27,1.46,1.56,2.1,.15,.34-.11,.68-.44,.68-.05,0-.11,0-.16-.03-.7-.24-1.48-.45-2.34-.61-.81-.15-1.75-.33-2.81-.33-.7,0-1.46,.08-2.27,.29-.81,.21-1.51,.51-2.09,.82-.08,.04-.15,.06-.23,.06-.3,0-.55-.3-.45-.64Z"/><polygon class="cls-2" points="38.87 40.82 35.93 37.88 32.4 41.38 35.93 44.91 38.87 41.99 41.81 44.91 45.34 41.38 41.81 37.88 38.87 40.82"/><polygon class="cls-2" points="58.25 10.1 54.7 6.57 51.19 10.1 54.7 13.61 58.25 10.1"/><path class="cls-1" d="M60.04,18.45c-.69-.69-1.5-1.24-2.42-1.64-.92-.4-1.91-.6-2.96-.6s-2.04,.2-2.97,.6c-.93,.4-1.74,.95-2.44,1.64-.69,.69-1.24,1.5-1.65,2.43-.41,.92-.61,1.91-.61,2.96v3.8c0,.49,.05,.96,.14,1.41,.09,.45,.21,.88,.37,1.3h-3.38c-.34,0-.67-.06-1-.19-.33-.13-.62-.3-.87-.54-.25-.23-.46-.52-.61-.86-.15-.34-.23-.74-.23-1.19v-8.02h-4.91v8.02c0,.45-.08,.84-.24,1.19-.16,.34-.37,.63-.63,.86-.26,.23-.55,.41-.88,.54-.32,.12-.65,.18-.98,.19-.33,0-.65-.06-.98-.19-.33-.13-.62-.3-.87-.54-.25-.23-.46-.52-.61-.86-.15-.34-.23-.74-.23-1.19V10.27h-4.91V27.57c0,.45-.08,.84-.24,1.19-.16,.34-.37,.63-.63,.86-.26,.23-.55,.41-.88,.54-.33,.13-.66,.19-1,.19h-3c.28-.77,.42-1.59,.42-2.46v-4.05c0-1.05-.2-2.04-.61-2.96-.41-.92-.96-1.73-1.66-2.43-.7-.69-1.51-1.24-2.44-1.64-.92-.4-1.91-.6-2.96-.6s-2.04,.2-2.97,.6c-.93,.4-1.74,.95-2.44,1.64-.69,.69-1.24,1.5-1.64,2.43-.4,.92-.6,1.91-.6,2.96l.02,4.68c-1.19,.35-2.17,.82-2.93,1.41-.76,.59-1.35,1.26-1.76,2-.41,.75-.67,1.56-.78,2.45-.1,.88-.1,1.79,0,2.72,.11,.93,.29,1.87,.56,2.82,.27,.95,.57,1.87,.92,2.75H6.89c-.69-1.41-1.16-2.63-1.43-3.64-.27-1.01-.37-1.87-.31-2.55,.06-.66,.22-1.17,.48-1.52,.27-.36,.6-.6,1-.75,.4-.14,.85-.19,1.34-.14,.5,.05,1.01,.15,1.54,.3,.28,.08,.57,.18,.88,.28,.31,.11,.68,.2,1.1,.29,.43,.09,.93,.17,1.51,.22,.58,.06,1.28,.08,2.11,.08h8.34c.99,0,1.92-.18,2.79-.54,.88-.36,1.67-.85,2.35-1.48,.69,.63,1.47,1.12,2.35,1.48,.87,.35,1.8,.53,2.79,.53h0s.01,0,.02,0,.01,0,.02,0h0c.99,0,1.92-.18,2.79-.54,.88-.36,1.67-.85,2.35-1.48,.69,.63,1.47,1.12,2.35,1.48,.87,.35,1.8,.53,2.79,.53h0s10.58,.04,10.58,.04c1.05,0,2.04-.2,2.96-.6,.92-.4,1.73-.95,2.42-1.65,.69-.7,1.24-1.52,1.65-2.45,.41-.93,.61-1.92,.61-2.97v-3.8c0-1.05-.2-2.04-.61-2.96-.41-.92-.96-1.73-1.65-2.43ZM15.9,27.67c0,.69-.13,1.21-.38,1.56-.25,.36-.57,.6-.96,.72-.38,.13-.8,.16-1.26,.11-.45-.06-.88-.14-1.28-.26-.4-.12-.75-.25-1.05-.39-.3-.14-.48-.24-.54-.29v-5.19c0-.45,.08-.84,.24-1.19,.16-.34,.37-.64,.62-.88,.25-.25,.54-.43,.87-.57,.33-.13,.66-.21,1-.22,.35-.01,.69,.03,1.02,.14,.33,.11,.62,.28,.87,.51,.25,.24,.45,.54,.61,.9,.15,.36,.23,.8,.23,1.3v3.74Zm41.49-.1c0,.5-.08,.94-.23,1.3-.15,.36-.36,.66-.62,.89-.26,.23-.55,.4-.88,.5-.33,.1-.66,.15-1,.14s-.67-.09-1-.22c-.33-.13-.62-.32-.88-.56-.26-.24-.47-.53-.62-.87-.15-.34-.23-.74-.23-1.19v-3.63c0-.45,.08-.84,.23-1.19,.15-.34,.36-.64,.62-.88,.26-.25,.55-.43,.88-.57,.33-.13,.66-.21,1-.22,.34-.01,.67,.03,1,.14,.33,.11,.62,.28,.88,.51,.26,.24,.46,.54,.62,.9,.15,.36,.23,.8,.23,1.3v3.63Z"/><path class="cls-1" d="M85.23,22.12c-.64-.86-1.36-1.67-2.14-2.44-.78-.76-1.55-1.45-2.31-2.07l-3.44,3.78c.6,.49,1.21,1,1.83,1.54,.62,.54,1.17,1.08,1.67,1.62,.5,.54,.9,1.07,1.22,1.58,.31,.52,.49,1.01,.51,1.47,.01,.34-.04,.67-.15,1-.11,.33-.28,.62-.51,.88-.23,.26-.53,.47-.89,.62-.36,.15-.8,.23-1.3,.23h-5.46v4.91h5.54c1.05,0,2.04-.2,2.98-.6,.94-.4,1.76-.94,2.46-1.64,.7-.69,1.25-1.5,1.65-2.44,.4-.93,.59-1.92,.58-2.97-.01-.95-.23-1.89-.64-2.81-.41-.92-.94-1.82-1.58-2.68Z"/><polygon class="cls-2" points="117.84 6.95 114.29 3.42 110.78 6.95 114.29 10.46 117.84 6.95"/><path class="cls-1" d="M122.14,19.55v8.02c0,.43-.08,.82-.23,1.16-.15,.34-.36,.63-.61,.86-.25,.23-.54,.41-.86,.54-.32,.13-.65,.2-.99,.21-.34-.01-.67-.08-.99-.21-.32-.13-.61-.3-.86-.54-.25-.23-.46-.52-.61-.86-.15-.34-.23-.73-.23-1.16v-8.02h-4.91v8.02c0,.43-.08,.82-.23,1.16-.15,.34-.36,.63-.61,.87s-.54,.42-.87,.55-.66,.19-1,.19-.67-.06-.99-.19-.61-.31-.86-.55-.46-.53-.61-.87c-.15-.34-.23-.73-.23-1.16v-8.02h-4.91v8.02c0,.45-.08,.84-.24,1.19-.16,.34-.37,.63-.63,.86-.26,.23-.55,.41-.88,.54-.32,.12-.65,.18-.98,.19-.33,0-.65-.06-.98-.19-.33-.13-.62-.3-.88-.54-.26-.23-.47-.52-.62-.86-.15-.34-.23-.74-.23-1.19V10.27h-4.91V27.63c0,1.05,.2,2.04,.6,2.97,.4,.93,.95,1.74,1.64,2.42,.69,.69,1.5,1.23,2.44,1.63,.92,.39,1.89,.59,2.93,.6h0s.01,0,.02,0c0,0,.01,0,.02,0h0c.99,0,1.92-.18,2.79-.54,.88-.36,1.67-.85,2.35-1.48,.71,.64,1.52,1.14,2.41,1.49s1.82,.52,2.77,.52c.99-.06,1.91-.24,2.76-.55,.85-.31,1.65-.8,2.4-1.47,.69,.63,1.47,1.12,2.35,1.48,.88,.36,1.83,.54,2.83,.54,1.04-.01,2.01-.22,2.93-.62,.92-.4,1.71-.94,2.39-1.63s1.22-1.49,1.62-2.42c.4-.92,.6-1.91,.6-2.96v-8.08h-4.91Z"/><polygon class="cls-2" points="114.24 13.9 117.16 16.82 120.69 13.29 117.16 9.78 114.24 12.72 111.3 9.78 107.78 13.29 111.3 16.82 114.24 13.9"/></svg>