<?xml version="1.0" encoding="UTF-8"?><svg id="Layer_1" xmlns="http://www.w3.org/2000/svg" viewBox="0 0 432.28 428.05"><defs><style>.cls-1{fill:#f6ba0e;}.cls-2{fill:#fff;}.cls-3,.cls-4{fill:#fafafa;}.cls-5{fill:none;stroke:#fff;stroke-miterlimit:10;}.cls-6{fill:#090b0c;}.cls-7{fill:#1d1c22;}.cls-8{fill:#c9990d;}.cls-9{fill:#f5f4f3;}.cls-4{opacity:.77;}.cls-10{fill:#e8e8e8;}.cls-11{fill:#c2940d;}.cls-12{fill:#dca51e;}.cls-13{fill:#d3a10e;}.cls-14{fill:#0d0e0c;}</style></defs><g><path class="cls-1" d="M295.27,198.07c11.9,1.2,23.73,2.79,35.28,6.16,25.37,7.42,47.6,19.87,63.58,42.12,12.43,17.3,18.26,37,19.44,58.29-.52,.14-1.03,.27-1.55,.41-1.28,0-2.57-.07-3.85,0-16.96,.89-33.93,1.79-50.89,2.7-.77-7.65-2.1-15.16-5.24-22.21-.38-.86-.56-2.44-1.91-1.93-1.55,.58-.4,1.76-.05,2.62,2.1,5.13,3.48,10.47,4.43,15.95,3.6,20.74-5.94,38.23-25.08,45.81-14.05,5.56-28.79,7.88-43.67,9.45-6.43,.68-6.43,.53-5.44-6.21,.35-2.35,.66-4.71,.92-7.07,.11-1.01,.58-2.42-.49-2.92-1.65-.77-1.05-1.39-.49-2.57,2.3-4.79,.89-8.52-3.9-10.48-.95-.39-1.76-.38-2-1.85-.99-6.17-2.29-7.43-7.15-7.79-3.92-.29-5.31-6.46-10.16-4.63-.12,.05-.27,.03-.38,.09-1.84,1.05-2.62,.47-3.03-1.65-.69-3.54-3.04-5.5-6.54-5.6-3.34-.09-5.5,1.8-6.71,4.96-1.2,3.14-4.58,3.85-7.13,1.55-2.65-2.38-6.78-2.94-8.64-.16-2.39,3.57-5.69,5.88-8.59,8.75-.27,.26-.37,.69-.6,1.01-.67,.97-1.58,.6-2.45,.45q.38-9.14-8.11-6.94c-3.22,.84-6.52,1.41-9.62,2.58-2.87,1.08-3.68-.13-3.97-2.65-.22-.95-.44-1.91-.65-2.86-3.32-16.27-6.65-32.54-9.97-48.81,.11-.88,.14-1.75-.57-2.43-.61-2.69,.38-4.68,2.15-6.72,24.62-28.33,54.63-47.24,90.97-55.22,.88-.19,1.73-.51,2.59-.77,.75-.04,1.5-.09,2.25-.13,6.09,6.04,10.1,5.71,14.98-1.22,.74-.02,1.49-.04,2.23-.06Z"/><path class="cls-1" d="M39.02,279.34c-1.43-1.33-3.18-.68-9.99-.71-1.35,0-2.34-.57-3.3,0-1.8,1.07-.9,3.78-2.65,4.92-1.42,.92-3.91,.36-4.96-.99-1.11-1.41,0-2.89-.5-4.63-1.09-3.74-8.79-6.19-13.55-4.25-4.44,1.81-4.17,11.79-3.99,18.08,.09,3.37,.61,22.01,7.56,23.7,3.29,.8,4.77-3,9.99-2.83,6.16,.2,7.74,5.62,11.41,4.96,2.67-.48,3.6-3.65,9.27-25.5,1.82-7,2.76-10.84,.71-12.75h0Zm-36.19,3.72l1.13-4.74c.25-1.06,1.32-1.71,2.38-1.46l.59,.14c1.06,.25,1.72,1.32,1.47,2.38l-1.13,4.74c-.25,1.06-1.32,1.71-2.38,1.46l-.59-.14c-1.06-.25-1.72-1.32-1.47-2.38h0Zm-.63,6.25c-.04-1.09,.81-2,1.9-2.05l.61-.02c1.09-.04,2.01,.81,2.05,1.89l.19,4.87c.04,1.09-.81,2-1.9,2.05l-.61,.02c-1.09,.04-2.01-.81-2.05-1.89l-.19-4.87Zm4.89,18.33l-.59,.16c-1.05,.29-2.14-.33-2.43-1.38l-1.3-4.7c-.29-1.05,.33-2.13,1.38-2.42l.59-.16c1.05-.29,2.14,.33,2.43,1.38l1.3,4.7c.29,1.05-.33,2.13-1.38,2.42h0Zm23.66-.7l-1.13,4.74c-.25,1.06-1.32,1.71-2.38,1.46l-.59-.14c-1.06-.25-1.72-1.32-1.47-2.38l1.13-4.74c.25-1.06,1.32-1.71,2.38-1.46l.59,.14c1.06,.25,1.72,1.32,1.47,2.38h0Zm2.84-10.88l-1.13,4.74c-.25,1.06-1.32,1.71-2.38,1.46l-.59-.14c-1.06-.25-1.72-1.32-1.47-2.38l1.13-4.74c.25-1.06,1.32-1.71,2.38-1.46l.59,.14c1.06,.25,1.72,1.32,1.47,2.38h0Zm2.96-11.57l-1.13,4.74c-.25,1.06-1.32,1.71-2.38,1.46l-.59-.14c-1.06-.25-1.72-1.32-1.47-2.38l1.13-4.74c.25-1.06,1.32-1.71,2.38-1.46l.59,.14c1.06,.25,1.72,1.32,1.47,2.38Z"/><path class="cls-4" d="M57.31,282.4c-.76-1.82-2.62-1.98-8.78-4.92-1.22-.59-1.9-1.52-3-1.42-2.07,.2-2.36,3.05-4.41,3.33-1.66,.22-3.7-1.35-4.1-3.02-.43-1.76,1.18-2.62,1.43-4.42,.53-3.87-5.47-9.39-10.58-9.67-4.78-.26-8.58,8.92-10.99,14.72-1.29,3.1-8.41,20.26-2.79,24.77,2.66,2.14,5.55-.68,10.23,1.71,5.51,2.82,4.74,8.42,8.35,9.4,2.62,.71,4.76-1.78,18.81-19.19,4.5-5.58,6.93-8.66,5.84-11.28h0Zm-34.39-12.13l2.96-3.82c.66-.85,1.9-.99,2.76-.3l.48,.38c.86,.69,1.03,1.93,.36,2.79l-2.96,3.82c-.66,.85-1.9,.99-2.76,.3l-.48-.38c-.86-.69-1.03-1.93-.36-2.79h0Zm-3.12,5.4c.41-1.01,1.55-1.47,2.56-1.04l.56,.24c1.01,.43,1.5,1.6,1.09,2.6l-1.81,4.5c-.41,1.01-1.55,1.47-2.56,1.04l-.56-.24c-1.01-.43-1.5-1.6-1.09-2.6l1.81-4.5Zm-3.02,18.74l-.6-.11c-1.07-.19-1.81-1.22-1.65-2.29l.73-4.82c.16-1.08,1.17-1.8,2.24-1.61l.6,.11c1.07,.19,1.81,1.22,1.65,2.29l-.73,4.82c-.16,1.08-1.17,1.8-2.24,1.61h0Zm21.78,9.5l-2.96,3.82c-.66,.85-1.9,.99-2.76,.3l-.48-.38c-.86-.69-1.03-1.93-.36-2.79l2.96-3.82c.66-.85,1.9-.99,2.76-.3l.48,.38c.86,.69,1.03,1.93,.36,2.79h0Zm7.01-8.67l-2.96,3.82c-.66,.85-1.9,.99-2.76,.3l-.48-.38c-.86-.69-1.03-1.93-.36-2.79l2.96-3.82c.66-.85,1.9-.99,2.76-.3l.48,.38c.86,.69,1.03,1.93,.36,2.79h0Zm7.4-9.25l-2.96,3.82c-.66,.85-1.9,.99-2.76,.3l-.48-.38c-.86-.69-1.03-1.93-.36-2.79l2.96-3.82c.66-.85,1.9-.99,2.76-.3l.48,.38c.86,.69,1.03,1.93,.36,2.79Z"/><path class="cls-3" d="M278.06,199.35c-.75,.04-1.5,.09-2.25,.13-.02-3.83,.99-8.11-.33-11.38-1.38-3.42-6.28-3.18-9.5-4.91-19.12-10.3-27.63-34.33-19.22-54.99,.67-1.64,1.2-2.77-.22-4.52-8.21-10.12-8.42-20.51-.71-31,4.77-6.49,10.87-11.25,18.55-13.53,3.36-.99,7.07-1.66,9.73,1.54,2.72,3.26,3.77,7.14,2.56,11.46-1.83,6.5-1.23,7.39,5.45,8.13,8.44,.94,16.88,1.96,24.96,4.85,15.47,5.53,22.28,16.32,20.82,33.07-.15,1.77,.13,2.78,1.72,3.83,3.69,2.45,5.1,6.2,4.36,10.63-.7,4.14-3.14,6.97-7.08,8.03-2,.54-2.87,1.7-3.72,3.44-5.21,10.66-13.39,17.98-24.43,21.61-2.94,.97-3.84,2.23-3.53,5.18,.25,2.35,.05,4.75,.05,7.13-.74,.02-1.49,.04-2.23,.06-.03-2.77-.13-5.55-.07-8.32,.03-1.56-.13-2.53-2.06-2.15-3.57,.7-7.18,.71-10.75,.02-1.93-.38-2.1,.6-2.07,2.16,.06,3.17-.01,6.34-.03,9.51Zm-28.18-72.03c-3.86,7.28-4.97,15.91-3.36,25.28,2.87,16.69,17.39,30.81,33.58,32.66,18.14,2.07,34.86-7.33,41.6-23.49,.77-1.84,1.49-2.75,3.74-2.9,3.63-.24,5.6-3,6.26-6.55,.67-3.6-.67-6.45-3.53-8.6-1.13-.85-1.89-.51-2.45,.63-.87,1.78,.68,1.16,1.34,1.35,.86,.24,1.9,.25,1.69,1.59-.08,.48-.3,1.02-1,.89-4.56-.87-6.3,1.69-6.91,5.83-.18,1.24-1.69,1.39-1.92,.46-.86-3.42-1.91-.73-2.76-.18-1.19,.78-2.27,1.73-3.39,2.63-1.14,.91-2.31,1.84-3.85,1.09-1.61-.79-1.35-2.34-1.3-3.8,.13-3.84,.12-7.67-.39-11.48-.88-6.63-2.93-8.86-9.49-8.89-5.91-.02-11.84,1.09-17.74,.89-4.74-.16-6.22,1.93-6.42,6.22-.1,2.1-1.39,4.54-.69,6.16,.88,2.03,3.62,.46,5.51,.81,.74,.14,1.62-.05,1.57,1.16-.04,1.1-.81,1.19-1.62,1.2-2.19,.04-4.39-.02-6.57,.12-1.75,.12-2.26-.47-1.86-2.25,.68-3.09,1.04-6.25,1.82-9.32,.68-2.71,.4-4.01-2.8-4.16-6.97-.34-13.32-2.75-19.06-7.35Z"/><path class="cls-9" d="M212.98,323.29c.87,.15,1.79,.53,2.45-.45,.22-.32,.33-.75,.6-1.01,2.89-2.87,6.19-5.18,8.59-8.75,1.87-2.78,5.99-2.22,8.64,.16,2.55,2.29,5.93,1.58,7.13-1.55,1.21-3.16,3.37-5.05,6.71-4.96,3.5,.09,5.85,2.05,6.54,5.6,.41,2.12,1.18,2.7,3.03,1.65,.11-.06,.26-.04,.38-.09,4.85-1.83,6.24,4.34,10.16,4.63,4.86,.36,6.16,1.62,7.15,7.79,.24,1.46,1.05,1.46,2,1.85,4.79,1.96,6.21,5.69,3.9,10.48-.57,1.18-1.16,1.8,.49,2.57,1.07,.5,.6,1.91,.49,2.92-.25,2.36-.57,4.72-.92,7.07-1,6.74-.99,6.88,5.44,6.21,14.87-1.57,29.61-3.89,43.67-9.45,19.14-7.58,28.68-25.08,25.08-45.81-.95-5.48-2.33-10.81-4.43-15.95-.35-.85-1.49-2.04,.05-2.62,1.35-.51,1.53,1.07,1.91,1.93,3.14,7.05,4.47,14.56,5.24,22.21-.03,1.19-.07,2.38-.09,3.56-.34,17.88-8.07,30.7-24.44,37.65-8.48,3.6-17.28,5.98-26.27,7.74-17.77,3.49-35.85,3.87-53.81,5.56-8,.75-15.86,1.99-22.75,6.7-1.08,.74-2.3,1.57-2.24,3.02,.07,1.7,1.6,2.34,2.9,2.79,2.93,1.03,5.98,1.53,9.07,1.82,15.08,1.42,30.13,.38,45.18-.6,.97-.06,2.57-1,2.77,.92,.13,1.28-1.19,1.11-2.04,1.16-16.47,.92-32.94,2.23-49.4,.08-2.65-.35-5.15-.24-7.51,.91-3.27,1.59-7.95,2.49-7.75,7.1,.21,4.91,4.81,6.02,8.71,7.01,7.2,1.84,14.56,1.78,21.91,1.74,10.58-.06,21.1-1.08,31.63-2.08,.98-.09,2.59-1.12,2.77,.8,.15,1.61-1.46,1.08-2.35,1.17-5.13,.52-10.26,1.21-15.4,1.41-14.74,.57-29.54,2.56-44.04-2.67-2.69-.97-5.1,2.03-6.55,4.55-1.35,2.34,.27,3.98,1.97,5.32,2.7,2.12,5.84,3.28,9.11,4.13,16.95,4.37,34,3.29,51.08,1.09,1.1-.14,2.97-1.33,3.2,.56,.22,1.79-1.86,1.31-3,1.46-13.97,1.9-27.97,2.6-42.01,.85-1.54-.19-3.1-.35-4.54,.4-.87,.45-2.15,.51-2.29,1.82-.14,1.31,1.02,1.8,1.85,2.31,4.57,2.81,9.6,4.55,14.73,5.7,31.34,7,62.23,4.69,92.54-5.63,18.75-6.39,35.59-16.32,48.36-32.07,18.54-22.85,27.48-48.96,23.45-79,.52-.14,1.03-.27,1.55-.41,2.67,10.89,2.08,21.83-.27,32.59-7.5,34.37-26.49,59.81-57.77,74.62-35.16,16.65-72.01,20.57-109.65,11.31-9.97-2.46-19.68-3.24-29.66-3.08-2.99,.05-4.04-.98-4.36-3.92-2.55-23.77-5.23-47.52-7.8-71.29-.16-1.52-1-3.48,1.47-4.28,1.23-.4,.26-1.23-.03-1.83-4.05-8.23-1.42-13.66,7.49-15.46Zm18.44,94.57c-1.71-1.81-3.69-3.27-2.56-4.8,2.19-2.95,.1-2.95-1.71-3.56-1.95-.67-3.88-1.4-5.75-2.28-8.19-3.84-8.85-8.58-1.91-14.33,1.2-.99,1.64-1.38,.59-2.94-2.52-3.75-2-6.89,1.57-9.58,2.14-1.61,4.62-2.75,6.96-4.11-4.99-3.56-5-5.93,.09-9.2,3.49-2.24,7.2-4.02,11.26-4.99,8.58-2.05,17.33-2.55,26.07-3.03,11.67-.64,11.59-.58,12.98-12.4,.36-3.04-.14-4.09-3.43-4.07-21.92,.16-43.83,.15-65.75,0-3.2-.02-3.9,.94-3.54,4.01,2.65,22.96,5.2,45.93,7.69,68.91,.21,1.93,.88,2.42,2.62,2.39,4.64-.09,9.28-.03,14.83-.03Z"/><path class="cls-10" d="M190.63,313.42c.22,.95,.44,1.91,.65,2.86-9.88,9.69-21.26,15.77-35.33,14.89-9.97-.62-18.94-4.54-27.6-9.35-42-23.34-72.19-57.56-90.21-102.99-1.55-3.92-2.65-8-3.26-12.19-.57-3.94-1.16-7.97,2.46-10.94,.8-.66,.39-1.41,.34-2.16-.08-1.32-.19-2.64-.18-3.96,.04-6.45,4.39-9.61,10.33-7.35,1.91,.73,3,1.41,2.97-1.68-.08-8.03,4.27-11.02,11.75-8.3,4.12,1.5,7.4,4.26,10.18,7.61,1.15,1.38,2.02,1.92,3.85,1.11,2.89-1.28,5.8-.42,8.6,.77,7.4,3.16,13.03,8.49,17.21,15.36,6.6,10.86,12.84,21.95,19.51,32.77,7.62,12.35,16.36,23.65,28.56,31.81,9.93,6.64,19.65,6.94,29.63,.49,.71,.68,.67,1.55,.57,2.43-10.7,6.66-21.17,6.18-31.53-.9-4.96-3.39-9.51-7.24-13.63-11.64-10.65-11.34-18.2-24.88-25.89-38.33-4.55-7.96-8.67-16.27-15.17-22.85-3.89-3.94-8.43-6.96-13.95-7.96-1.36-.25-3.11-.49-3.94,.89-.78,1.31,.67,2.35,1.31,3.39,7.29,11.83,14.63,23.61,21.9,35.45,.51,.83,2.2,1.84,.73,2.92-1.76,1.29-2.07-.88-2.65-1.79-4.9-7.75-9.61-15.63-14.59-23.33-4.62-7.13-8.15-15.04-14.28-21.08-3.22-3.17-6.78-5.65-11.55-5.46-3.03,.12-4.48,1.57-4.37,4.71,.17,4.6,1.58,8.76,3.94,12.64,7.41,12.21,14.8,24.43,22.15,36.68,.62,1.04,2.53,2.43,.62,3.52-1.78,1.02-2.03-1.37-2.64-2.37-7.32-11.96-14.53-23.98-21.81-35.96-2.19-3.61-4.59-7.08-8.61-8.79-3.55-1.52-6.55,.4-6.8,4.29-.23,3.64,.47,6.99,2.47,10.16,7.4,11.75,14.69,23.58,21.94,35.43,.57,.93,2.36,2.19,.73,3.3-1.72,1.18-2.02-1.08-2.59-1.99-6.88-11-13.62-22.08-20.54-33.05-.97-1.54-1.66-4.78-3.36-4.14-2.36,.9-1.62,4.07-1.52,6.41,.02,.52,.17,1.04,.26,1.56,1.82,10.95,6.28,20.9,11.41,30.51,20.72,38.81,50.09,68.41,89.42,87.09,11.51,5.47,23.48,6.76,35.6,1.73,6.56-2.73,11.88-7.29,16.93-12.24Z"/><path class="cls-12" d="M80.91,409.18c-.16,5.76-2.18,10.6-6.08,14.62-.5,.52-1.01,1.51-1.85,.87-1.21-.92-.02-1.57,.5-2.18,5.45-6.31,7.01-13.33,3.59-21.2-3.59-8.29-9.24-10.03-16.64-5.12-4.18,2.77-8.4,5.16-13.68,3.85-9.93-2.48-14.52-11.72-11.14-22.65,.54-1.75,1.34-3.42,2.15-5.06,.35-.7,.61-2.12,1.82-1.37,1.08,.67,.22,1.62-.17,2.4-2.09,4.19-3.29,8.56-2.71,13.34,1.06,8.81,10.23,14.27,18.14,10.62,2.56-1.18,4.87-2.92,7.36-4.29,5.08-2.8,9.74-1.95,13.51,2.51,3.32,3.93,4.94,8.58,5.19,13.67Z"/><path class="cls-8" d="M392.42,76.54c-.91,.09-2.13-.4-3.25-1.03-3.48-1.97-6.99-3.92-10.36-6.08-4.38-2.82-5.21-6.4-2.69-11.16,1.78-3.36,3.63-6.67,5.59-9.92,2.54-4.23,5.92-5.28,10.17-3.01,3.64,1.94,7.23,4.02,10.68,6.31,3.8,2.53,4.65,6.18,2.51,10.31-1.86,3.61-3.94,7.1-5.96,10.61-1.4,2.43-3.42,3.89-6.69,3.97Zm12.45-17.94c-.12-2.81-1.15-4.61-3.02-5.75-3.63-2.23-7.29-4.41-11.02-6.46-3.14-1.73-5.85-.72-7.67,2.18-2.29,3.64-4.43,7.41-6.35,11.27-1.63,3.28-.78,6.19,2.35,8.14,3.4,2.11,6.81,4.22,10.32,6.13,3.57,1.94,6.42,1.1,8.55-2.43,2.02-3.35,3.89-6.81,5.76-10.26,.55-1.01,.84-2.17,1.08-2.8Z"/><path class="cls-10" d="M149.11,388.36c2.09-.06,3.55-3.77,4.91-1.74,1.14,1.69-2.84,1.91-3.44,3.96,.65,1.21,1.95,.77,2.97,1.06,.82,.23,2.14,.1,1.98,1.31-.17,1.35-1.29,.74-2.17,.56-1.11-.22-2.25-.27-3.46-.4,.14,1.63,1.28,2.44,1.88,3.57,.35,.67,1.01,1.45,.07,2.02-.93,.57-1.32-.41-1.74-1.03-.65-.96-1.29-1.92-2.29-3.41-.43,1.62-.72,2.78-1.06,3.93-.22,.76,.23,2.2-1.25,1.89-1.38-.29-.58-1.48-.53-2.3,.06-1.04,.19-2.07,.28-3.03-.87-.54-1.27,.14-1.81,.35-1.18,.45-2.4,2.75-3.4,1.16-.86-1.37,1.59-1.88,2.5-2.85,.34-.36,.77-.63,1.6-1.29-2.18-.64-3.99-1.17-6-1.75,2.03-2.72,4,.33,5.99-.66,.13-1.65-1.32-2.57-1.97-3.86-.31-.62-.65-1.25-.03-1.75,.65-.52,1.12-.07,1.52,.56,.71,1.08,1.49,2.11,2.23,3.13,.31-.09,.59-.09,.71-.22,1.19-1.36-.25-4.95,2.09-4.49,1.94,.38-.67,3.42,.39,5.29Z"/><path class="cls-13" d="M74.91,162.19c7.46-8.22,20.38-4.23,24.62,5.64-3.47-2.83-6.31-6.5-10.73-8.05-4.72-1.65-8.79,.69-13.89,2.41Z"/><path class="cls-13" d="M18.39,217.25c-7.08-3.37-8.36-17.74,2.54-25.06-6.51,7.78-9.81,15.86-2.54,25.06Z"/><path class="cls-8" d="M23.56,212.28c-2.9-2-3.88-4.86-3.33-8.29,.62-3.9,3.14-6.53,5.86-9.01,.46-.42,1.06-.94,1.66-.26,.66,.75-.14,1.11-.54,1.54-1.07,1.13-2.23,2.18-3.21,3.39-3.26,4.03-2.6,8.19-.45,12.63Z"/><path class="cls-13" d="M78.9,168.94c5.05-6.92,16.09-2.21,17.58,6.24-2.92-2.41-4.23-5.89-7.42-7.41-3.2-1.53-6.24-.36-10.16,1.18Z"/><path class="cls-14" d="M218.26,1.21c-.19,.45-.39,.9-.58,1.36-.71-.01-1.41-.03-2.12-.04,.32-1.69,1.55-1.41,2.7-1.32Z"/><path class="cls-14" d="M66.28,60.89c.13-.04,.26-.03,.38,.04-.05,.22-.09,.44-.13,.67-.08-.23-.16-.47-.24-.7Z"/><path class="cls-7" d="M412.01,305.04c4.03,30.03-4.92,56.15-23.45,79-12.77,15.74-29.61,25.68-48.36,32.07-30.31,10.32-61.2,12.63-92.54,5.63-5.14-1.15-10.17-2.89-14.73-5.7-.83-.51-1.99-1-1.85-2.31,.14-1.31,1.42-1.37,2.29-1.82,1.45-.75,3-.59,4.54-.4,14.04,1.75,28.04,1.05,42.01-.85,1.14-.16,3.22,.33,3-1.46-.23-1.89-2.1-.7-3.2-.56-17.08,2.2-34.13,3.28-51.08-1.09-3.27-.84-6.4-2.01-9.11-4.13-1.7-1.33-3.32-2.97-1.97-5.32,1.45-2.52,3.86-5.52,6.55-4.55,14.5,5.23,29.29,3.24,44.04,2.67,5.14-.2,10.27-.89,15.4-1.41,.9-.09,2.5,.43,2.35-1.17-.18-1.92-1.8-.89-2.77-.8-10.52,1-21.05,2.02-31.63,2.08-7.35,.04-14.71,.1-21.91-1.74-3.9-1-8.5-2.1-8.71-7.01-.2-4.61,4.48-5.51,7.75-7.1,2.36-1.15,4.87-1.26,7.51-.91,16.46,2.15,32.94,.84,49.4-.08,.85-.05,2.17,.11,2.04-1.16-.2-1.92-1.79-.98-2.77-.92-15.05,.98-30.1,2.01-45.18,.6-3.09-.29-6.14-.8-9.07-1.82-1.3-.45-2.83-1.09-2.9-2.79-.06-1.45,1.16-2.28,2.24-3.02,6.89-4.71,14.75-5.95,22.75-6.7,17.95-1.68,36.03-2.07,53.81-5.56,8.99-1.76,17.79-4.14,26.27-7.74,16.37-6.95,24.1-19.77,24.44-37.65,.02-1.19,.06-2.38,.09-3.56,16.96-.9,33.93-1.81,50.89-2.7,1.28-.07,2.57,0,3.85,0Z"/><path class="cls-7" d="M190.63,313.42c-5.05,4.95-10.37,9.51-16.93,12.24-12.12,5.03-24.09,3.74-35.6-1.73-39.33-18.68-68.69-48.28-89.42-87.09-5.13-9.61-9.59-19.56-11.41-30.51-.09-.52-.24-1.04-.26-1.56-.09-2.35-.83-5.52,1.52-6.41,1.71-.65,2.39,2.59,3.36,4.14,6.92,10.97,13.66,22.05,20.54,33.05,.57,.91,.86,3.17,2.59,1.99,1.63-1.11-.16-2.37-.73-3.3-7.25-11.85-14.54-23.68-21.94-35.43-2-3.17-2.7-6.52-2.47-10.16,.25-3.9,3.25-5.81,6.8-4.29,4.01,1.72,6.41,5.19,8.61,8.79,7.28,11.98,14.49,24.01,21.81,35.96,.61,1,.85,3.39,2.64,2.37,1.9-1.09,0-2.48-.62-3.52-7.35-12.25-14.74-24.47-22.15-36.68-2.35-3.88-3.77-8.04-3.94-12.64-.11-3.14,1.34-4.6,4.37-4.71,4.78-.18,8.33,2.29,11.55,5.46,6.13,6.04,9.67,13.95,14.28,21.08,4.98,7.69,9.69,15.58,14.59,23.33,.58,.91,.89,3.08,2.65,1.79,1.47-1.08-.21-2.09-.73-2.92-7.27-11.84-14.61-23.63-21.9-35.45-.64-1.04-2.09-2.09-1.31-3.39,.83-1.38,2.58-1.14,3.94-.89,5.52,1,10.06,4.02,13.95,7.96,6.5,6.58,10.61,14.88,15.17,22.85,7.69,13.45,15.23,26.99,25.89,38.33,4.13,4.39,8.67,8.25,13.63,11.64,10.37,7.08,20.83,7.56,31.53,.9,3.32,16.27,6.65,32.54,9.97,48.81Z"/><path class="cls-7" d="M278.06,199.35c.02-3.17,.09-6.34,.03-9.51-.03-1.57,.14-2.54,2.07-2.16,3.57,.7,7.18,.68,10.75-.02,1.93-.38,2.09,.59,2.06,2.15-.06,2.77,.04,5.54,.07,8.32-4.88,6.93-8.89,7.26-14.98,1.22Z"/><path class="cls-7" d="M231.42,417.86c-5.55,0-10.19-.06-14.83,.03-1.74,.03-2.41-.46-2.62-2.39-2.49-22.98-5.04-45.95-7.69-68.91-.35-3.07,.34-4.03,3.54-4.01,21.92,.15,43.83,.15,65.75,0,3.29-.02,3.79,1.03,3.43,4.07-1.38,11.82-1.3,11.75-12.98,12.4-8.74,.48-17.49,.99-26.07,3.03-4.07,.97-7.77,2.74-11.26,4.99-5.09,3.27-5.08,5.64-.09,9.2-2.34,1.36-4.82,2.5-6.96,4.11-3.57,2.68-4.09,5.82-1.57,9.58,1.05,1.56,.61,1.95-.59,2.94-6.93,5.75-6.28,10.48,1.91,14.33,1.87,.88,3.8,1.61,5.75,2.28,1.81,.62,3.9,.62,1.71,3.56-1.14,1.53,.85,2.99,2.56,4.8Z"/><path class="cls-6" d="M416.41,157.64c.85-.16,1.56-.2,.85,1.01-.28-.34-.57-.68-.85-1.01Z"/><path class="cls-11" d="M390.96,56.65c1.47,.12,2.98-.24,3.18,1.68,.15,1.48-3.45,6.91-4.38,6.55-2.34-.91-3.02-3.31-3.12-5.43-.16-3.27,2.82-2.18,4.33-2.8Zm-1.07,6.53c1.21-1.44,2.28-2.79,2.56-4.8-1.56-.06-3.38-.83-4.2,.85-.64,1.31,.35,2.7,1.63,3.95Z"/><path class="cls-5" d="M418.18,145.08c-18.46,10.17-25.36,27.41-20.67,36.69,4.79,9.5,23.47,14.09,30.73,6.31,4.02-4.31,4.92-12.8,1.12-17.77-5.16-6.76-16.77-4.08-19.56-3.44-21.41,4.94-30.45,33.76-31.85,38.41"/></g><path id="Shape" class="cls-1" d="M239.71,33.89c-2.24-.98-3.38-3.63-2.68-6.22l5.8-21.78c.21-.79,.97-1.28,1.69-1.09,.07,.02,.13,.04,.2,.07l.49,.22c.28-1.44,1.16-2.7,2.37-3.42,1.48-.82,3.21-.77,4.56,.15,1.01-1.32,2.56-2,4.09-1.79,1.53,.22,2.82,1.25,3.45,2.75,1.58-.9,3.45-.8,4.84,.28,1.28,1,1.86,2.74,1.48,4.46,1.57,.86,2.47,2.66,2.3,4.6-.09,1-.45,1.96-1.04,2.77l.47,.21c.68,.3,.98,1.16,.66,1.91-.03,.07-.06,.14-.1,.2l-11.52,19.23c-1.36,2.3-4.03,3.26-6.26,2.25l-10.79-4.8Zm11.94,2.08c1.01,.46,2.23,.02,2.84-1.02l10.64-17.77-4.71-2.09-9.67,20.48,.9,.4Zm-3.36-1.49l9.67-20.48-5.79-2.57-7.95,21.25,4.07,1.81Zm-8.65-6.13c-.32,1.18,.2,2.38,1.22,2.83l.89,.4,7.95-21.25-4.7-2.09-5.36,20.11Zm25.05-14.59c.46-.44,.77-1.03,.89-1.67,.07-1.13-.41-1.83-1.71-2.32-.7-.26-1.03-1.1-.75-1.86,0,0,0,0,0,0,.46-1.22,.33-1.91-.32-2.45s-1.63-.41-3.19,.63c-.66,.43-1.49,.23-1.85-.46-.05-.09-.09-.19-.12-.3-.42-1.54-1.04-2.24-1.88-2.34-.81-.11-1.5,.34-2.22,1.62-.4,.71-1.24,.96-1.88,.56-.07-.04-.14-.09-.2-.15-1.07-1.01-1.9-1.18-2.76-.72-.59,.46-.95,1.17-.98,1.94l16.97,7.54Z"/><g id="movie"><path class="cls-1" d="M105.49,83.54c.42,.06,.82-.24,.88-.67l.12-.85,.83,.12c.42,.06,.81-.25,.87-.69,.05-.42-.23-.82-.64-.88l-.83-.12,.12-.85c.06-.43-.24-.83-.67-.89-.41-.06-.8,.24-.86,.66l-.12,.85-.83-.12c-.42-.05-.81,.25-.86,.69-.05,.42,.23,.81,.64,.88l.83,.12-.12,.85c-.06,.43,.23,.84,.65,.9Z"/><path class="cls-1" d="M155.03,88.42c-1.03,.79-1.24,2.28-.47,3.33s2.22,1.27,3.25,.49,1.24-2.28,.47-3.33c-.77-1.05-2.22-1.27-3.25-.49Zm1.85,2.55c-.34,.26-.83,.19-1.08-.16s-.18-.85,.16-1.11,.83-.19,1.08,.16c.26,.35,.18,.85-.16,1.11Z"/><ellipse class="cls-1" cx="153.2" cy="81.9" rx=".77" ry=".79"/><path class="cls-1" d="M136.32,68.85l4.82-.88,1.1,1.52c.26,.35,.74,.42,1.08,.16s.41-.76,.16-1.11l-1.39-1.91c-.18-.24-.47-.36-.76-.31l-8.05,1.47-.18-.24c-.26-.35-.74-.42-1.08-.16l-.83,.64s-.01,0-.02,0c-8.41-.13-15.86,5.54-18.16,13.84,0,.02,0,.04,0,.06l-.84,.65c-.34,.26-.41,.76-.16,1.11l.18,.24-3.68,7.49c-.13,.27-.1,.59,.07,.83l1.39,1.91c.26,.35,.74,.42,1.08,.16s.41-.76,.16-1.11l-1.1-1.52,2.2-4.48c.07,10.52,8.44,19,18.7,18.92,10.26-.07,18.52-8.66,18.45-19.19-.03-4.06-1.32-8-3.68-11.26-2.36-3.26-5.68-5.66-9.46-6.84Zm-21.21,16.43l8.69-6.64,.92,1.27s.04,.04,.06,.06c.01,.03,.02,.05,.04,.08,1.22,1.68,.88,4.07-.76,5.32l-4.01,3.06c-.94,.72-2.28,.52-2.98-.45l-1.96-2.7Zm10.85-6.32l-.92-1.27,8.69-6.64,1.96,2.7c.7,.97,.51,2.34-.44,3.06l-4.01,3.06c-1.64,1.25-3.96,.91-5.19-.78-.02-.02-.04-.04-.06-.06-.01-.03-.02-.05-.04-.08Zm-5.25-5.89c2.41-1.85,5.26-3,8.26-3.34l-13.74,10.5c1.17-2.85,3.06-5.32,5.48-7.16Zm20.35,28.01c-7.54,5.76-18.21,4.17-23.83-3.57-2.36-3.24-3.54-7.22-3.36-11.26l1.95,2.68c1.22,1.67,3.52,2.02,5.15,.77l4.01-3.06c1.47-1.12,2.26-2.94,2.09-4.81,1.7,.7,3.63,.44,5.09-.68l4.01-3.06c1.63-1.25,1.96-3.61,.75-5.28l-1.94-2.67c9.12,2.32,14.69,11.78,12.43,21.14-.95,3.93-3.19,7.4-6.36,9.81Z"/><path class="cls-1" d="M132.29,85.01c-1.37,1.05-1.65,3.04-.63,4.44s2.96,1.7,4.33,.65,1.65-3.04,.63-4.44c-1.02-1.4-2.96-1.69-4.33-.65Z"/><path class="cls-1" d="M114.21,76.07s.08-.07,.11-.11l2.64-3.01c.28-.33,.25-.83-.07-1.12-.32-.29-.8-.26-1.08,.06l-2.64,3.01c-.29,.33-.26,.83,.06,1.12,.27,.25,.69,.27,.98,.05Z"/><path class="cls-1" d="M121.68,69.34l3.57-1.74s.09-.05,.13-.08c.34-.26,.41-.76,.15-1.11-.22-.3-.62-.4-.95-.24l-3.57,1.74c-.39,.18-.56,.66-.38,1.05,.18,.4,.64,.57,1.03,.39,0,0,0,0,.01,0h0Z"/></g><ellipse class="cls-1" cx="293.04" cy="151" rx="5.74" ry="5.89"/><ellipse class="cls-1" cx="257.96" cy="146.99" rx="5.74" ry="5.89"/><path class="cls-2" d="M262.15,163.75c-.69,.58,1.3,4.49,3.52,7.22,1.24,1.53,3.48,4.21,7.43,5.62,5.85,2.09,10.93-.22,12.12-.8,3.85-1.89,7.2-5.47,6.65-6.42-.78-1.34-8.03,4.97-16.42,3.21-7.99-1.67-12.3-9.66-13.29-8.83Z"/></svg>