<?xml version="1.0" encoding="UTF-8"?><svg id="Layer_1" xmlns="http://www.w3.org/2000/svg" viewBox="0 0 480.32 484.9"><path class="cls-1" d="M319.04,318.66c-7.87-.11-14.66,5.52-16,13.28-5.21,24.87-24.64,44.31-49.52,49.52-34.6,7.25-68.52-14.92-75.76-49.52-1.34-7.76-8.13-13.39-16-13.28-.86,0-1.73,.05-2.58,.18-8.74,1.33-14.74,9.48-13.42,18.22,8.8,45.08,48.31,77.61,94.24,77.6,46.23,.39,86.18-32.22,95.04-77.6,.13-.85,.19-1.72,.18-2.58-.1-8.84-7.34-15.92-16.18-15.82Z"/><path class="cls-2" d="M441.92,99.46L274.88,8.9c-21.8-11.87-48.12-11.87-69.92,0L38.4,99.94C14.88,112.67,.16,137.2,0,163.94v247.68c.09,40.37,32.75,73.1,73.12,73.28H406.88c40.5,0,73.35-32.78,73.44-73.28V163.46c-.16-26.74-14.88-51.27-38.4-64Zm6.08,312.16c0,22.74-18.38,41.19-41.12,41.28H73.28c-22.8,0-41.28-18.48-41.28-41.28V163.94c-.08-15.09,8.08-29.01,21.28-36.32L220.32,36.9c6.05-3.27,12.81-4.97,19.68-4.96,6.88,.04,13.65,1.8,19.68,5.12l166.72,90.56c13.32,7.22,21.61,21.17,21.6,36.32v247.68Z"/></svg>