<?xml version="1.0" encoding="iso-8859-1"?>
<svg fill="#c2d5ea" version="1.1" id="Capa_1" xmlns="http://www.w3.org/2000/svg" xmlns:xlink="http://www.w3.org/1999/xlink" x="0px" y="0px"
	 viewBox="0 0 56.046 56.046" style="enable-background:new 0 0 56.046 56.046;" xml:space="preserve">
<g>
	<path d="M53.191,28.463c-0.235,0.129-0.469,0.258-0.711,0.379c-5.493,2.749-11.728,3.198-17.559,1.258
		c-5.829-1.939-10.555-6.033-13.305-11.526c-2.532-5.056-3.112-10.847-1.633-16.306L20.599,0l-2.061,1.129
		C7.091,7.402,2.391,21.605,7.838,33.464c0.23,0.501,0.826,0.722,1.326,0.491c0.502-0.23,0.723-0.824,0.492-1.326
		C4.968,22.424,8.449,10.333,17.538,4.09c-0.891,5.222-0.102,10.602,2.29,15.379c2.99,5.971,8.126,10.42,14.463,12.528
		c5.866,1.951,12.117,1.68,17.752-0.748c-2.045,5.346-6.026,9.775-11.181,12.356c-3.169,1.586-6.559,2.407-10.075,2.438
		c-0.642,0.006-1.286-0.015-1.918-0.063c-0.551-0.05-1.031,0.371-1.072,0.922c-0.041,0.551,0.371,1.031,0.922,1.072
		c0.617,0.046,1.244,0.07,1.868,0.07c0.073,0,0.145,0,0.218-0.001c3.824-0.034,7.509-0.926,10.952-2.65
		c6.356-3.182,11.07-8.949,12.934-15.822l0.562-2.239L53.191,28.463z"/>
	<path d="M13.087,41.753c0.195,0.195,0.451,0.293,0.707,0.293s0.512-0.098,0.707-0.293l3-3c0.391-0.391,0.391-1.023,0-1.414
		s-1.023-0.391-1.414,0l-3,3C12.697,40.729,12.697,41.362,13.087,41.753z"/>
	<path d="M19.794,36.046c0.256,0,0.512-0.098,0.707-0.293l3-3c0.391-0.391,0.391-1.023,0-1.414s-1.023-0.391-1.414,0l-3,3
		c-0.391,0.391-0.391,1.023,0,1.414C19.283,35.948,19.539,36.046,19.794,36.046z"/>
	<path d="M10.087,51.339l-3,3c-0.391,0.391-0.391,1.023,0,1.414c0.195,0.195,0.451,0.293,0.707,0.293s0.512-0.098,0.707-0.293l3-3
		c0.391-0.391,0.391-1.023,0-1.414S10.478,50.948,10.087,51.339z"/>
	<path d="M17.501,45.339c-0.391-0.391-1.023-0.391-1.414,0l-3,3c-0.391,0.391-0.391,1.023,0,1.414
		c0.195,0.195,0.451,0.293,0.707,0.293s0.512-0.098,0.707-0.293l3-3C17.892,46.362,17.892,45.729,17.501,45.339z"/>
	<path d="M19.087,43.753c0.195,0.195,0.451,0.293,0.707,0.293s0.512-0.098,0.707-0.293l3-3c0.391-0.391,0.391-1.023,0-1.414
		s-1.023-0.391-1.414,0l-3,3C18.697,42.729,18.697,43.362,19.087,43.753z"/>
	<path d="M10.087,35.339l-3,3c-0.391,0.391-0.391,1.023,0,1.414c0.195,0.195,0.451,0.293,0.707,0.293s0.512-0.098,0.707-0.293l3-3
		c0.391-0.391,0.391-1.023,0-1.414S10.478,34.948,10.087,35.339z"/>
	<path d="M4.087,41.339l-3,3c-0.391,0.391-0.391,1.023,0,1.414c0.195,0.195,0.451,0.293,0.707,0.293s0.512-0.098,0.707-0.293l3-3
		c0.391-0.391,0.391-1.023,0-1.414S4.478,40.948,4.087,41.339z"/>
	<path d="M10.087,43.339l-3,3c-0.391,0.391-0.391,1.023,0,1.414c0.195,0.195,0.451,0.293,0.707,0.293s0.512-0.098,0.707-0.293l3-3
		c0.391-0.391,0.391-1.023,0-1.414S10.478,42.948,10.087,43.339z"/>
	<path d="M4.087,49.339l-3,3c-0.391,0.391-0.391,1.023,0,1.414c0.195,0.195,0.451,0.293,0.707,0.293s0.512-0.098,0.707-0.293l3-3
		c0.391-0.391,0.391-1.023,0-1.414S4.478,48.948,4.087,49.339z"/>
	<path d="M13.794,34.046c0.256,0,0.512-0.098,0.707-0.293l3-3c0.391-0.391,0.391-1.023,0-1.414s-1.023-0.391-1.414,0l-3,3
		c-0.391,0.391-0.391,1.023,0,1.414C13.283,33.948,13.539,34.046,13.794,34.046z"/>
	<path d="M19.087,50.339l-3,3c-0.391,0.391-0.391,1.023,0,1.414c0.195,0.195,0.451,0.293,0.707,0.293s0.512-0.098,0.707-0.293l3-3
		c0.391-0.391,0.391-1.023,0-1.414S19.478,49.948,19.087,50.339z"/>
	<path d="M25.087,44.339l-3,3c-0.391,0.391-0.391,1.023,0,1.414c0.195,0.195,0.451,0.293,0.707,0.293s0.512-0.098,0.707-0.293l3-3
		c0.391-0.391,0.391-1.023,0-1.414S25.478,43.948,25.087,44.339z"/>
</g>
<g>
</g>
<g>
</g>
<g>
</g>
<g>
</g>
<g>
</g>
<g>
</g>
<g>
</g>
<g>
</g>
<g>
</g>
<g>
</g>
<g>
</g>
<g>
</g>
<g>
</g>
<g>
</g>
<g>
</g>
</svg>
