<?xml version="1.0" encoding="utf-8"?>
<svg fill="#7fbde7" width="30px" version="1.1" xmlns="http://www.w3.org/2000/svg" xmlns:xlink="http://www.w3.org/1999/xlink" x="0px" y="0px" viewBox="0 0 1000 1000" enable-background="new 0 0 1000 1000" xml:space="preserve">
<g><g transform="translate(0.000000,511.000000) scale(0.100000,-0.100000)"><path d="M4752.4,4999c-589.4-77.4-1168.8-512-1420.8-1067.6c-117.1-258-144.9-406.8-146.8-744.2c0-261.9,5.9-331.4,45.6-466.3c148.8-517.9,508-950.5,982.3-1178.7c297.7-142.9,420.7-170.7,787.8-170.7c359.2,0,508,33.7,803.7,178.6c466.3,230.2,799.7,627.1,956.5,1135.1c49.6,158.7,53.6,202.4,53.6,492.1c-2,287.7-6,333.4-55.6,496.1c-214.3,708.4-744.1,1186.7-1454.6,1309.7C5147.3,5010.9,4895.3,5018.8,4752.4,4999z M5325.9,4445.3c402.8-97.2,783.8-458.4,916.8-867.2c43.7-132.9,53.6-202.4,55.6-381c2-379-115.1-656.8-392.9-932.7c-172.6-170.7-345.3-275.8-557.6-339.3c-180.6-55.6-551.6-49.6-724.3,9.9c-343.3,119.1-641,375-787.8,676.7c-107.2,222.3-134.9,345.3-132.9,595.3c2,172.6,11.9,236.1,55.6,367.1C3988.4,4242.9,4645.3,4610,5325.9,4445.3z"/><path d="M2148.9,1155.2c-341.3-83.3-646.9-398.9-718.3-742.1c-25.8-127-29.8-4038.2-4-4331.9c13.9-152.8,31.8-220.3,81.4-325.4c113.1-236.1,373.1-446.5,642.9-517.9c83.3-21.8,587.4-27.8,2839.6-27.8c2992.4,0,2873.4-4,3093.7,115.1c136.9,73.4,305.6,248,383,392.9c131,244.1,125,148.8,123,2359.4c0,1101.3-7.9,2099.5-15.9,2214.6c-13.9,174.6-27.8,232.2-81.3,343.3c-113.1,238.1-373.1,448.5-642.9,519.9c-71.4,19.8-232.2,27.8-547.7,27.8l-446.5-2l-406.8-613.2c-224.2-337.3-412.8-611.2-418.7-609.2c-7.9,2-238.1,214.3-514,470.3c-275.8,256-508,466.3-515.9,466.3S4760.3,684.9,4484.5,429c-275.8-256-506-468.3-514-470.3c-6-2-194.5,271.9-418.7,609.2L3145.1,1181h-446.5C2412.8,1181,2214.4,1171.1,2148.9,1155.2z M2817.6,647.2c61.5-17.9,99.2-63.5,357.2-460.4C3516.1-337,3631.2-466,3799.9-513.6c148.8-43.7,311.6-29.8,448.5,39.7c61.5,31.8,222.2,168.7,416.7,353.2c174.6,166.7,323.5,303.6,331.4,307.6c7.9,2,148.8-125,315.5-281.8c432.6-410.8,519.9-462.4,748.1-444.5c156.8,13.9,295.7,83.3,404.8,206.4c47.6,53.6,216.3,295.7,373.1,537.8l289.7,438.5l220.3,13.9c400.8,23.8,573.5-43.7,672.7-265.9c39.7-83.4,39.7-134.9,37.7-2208.6c-2-1381.1-9.9-2141.1-23.8-2174.9c-27.8-73.4-131-178.6-224.3-226.2c-77.4-39.7-107.1-39.7-2799.9-41.7c-2018.1,0-2738.4,6-2790,23.8c-37.7,11.9-103.2,55.6-142.9,97.2c-146.9,150.8-136.9-13.9-133,2351.5c2,2323.7-5.9,2170.9,117.1,2301.9c87.3,95.3,156.8,123,349.3,134.9C2708.5,667.1,2746.2,667.1,2817.6,647.2z"/></g></g>
</svg>