<?xml version="1.0" encoding="UTF-8"?>
<svg id="Layer_1" data-name="Layer 1" xmlns="http://www.w3.org/2000/svg" viewBox="0 0 980 739.8">
  <path class="cls-1" d="M718.9,739.8H239.3l-107.8-394.9c-7.7,1.7-15.4,2.5-23,2.5C48.7,347.4,0,298.7,0,238.9s48.7-108.5,108.5-108.5,108.5,48.7,108.5,108.5c0,10.9-1.6,21.8-4.8,32.1l114.3,11.4,95.2-81.5c-32.4-20-51.8-54.5-51.8-92.4C369.9,48.7,418.6,0,478.4,0s108.5,48.7,108.5,108.5c0,37.5-19.1,71.9-51,91.9l95.7,82,135.6-13.5c-2.9-9.9-4.3-20-4.3-30,0-59.8,48.7-108.5,108.5-108.5,29,0,56.2,11.3,76.7,31.8,20.6,20.4,31.9,47.7,31.9,76.7,0,59.8-48.7,108.5-108.5,108.5-14.9,0-29.4-3-43-8.9l-109.6,401.3Zm-465-19.2h450.3l111.5-408.5,20.3,8.8c11.3,4.9,23.2,7.3,35.5,7.3,49.3,0,89.4-40.1,89.4-89.4,0-23.9-9.3-46.3-26.2-63.2-16.9-16.9-39.3-26.2-63.2-26.2-49.3,0-89.4,40.1-89.4,89.4,0,8.2,1.2,16.5,3.6,24.7l6.3,22.1-166.5,16.6-121.7-104.1,22-13.8c26.3-16.5,42-44.8,42-75.7,0-49.3-40.1-89.4-89.4-89.4s-89.4,40.1-89.4,89.4c0,31.2,15.9,59.6,42.7,76.1l22.4,13.8-121.4,103.8-145.7-14.6,6.9-22.4c2.6-8.5,4-17.4,4-26.5,0-49.3-40.1-89.4-89.4-89.4S19.1,189.5,19.1,238.8s40.1,89.4,89.4,89.4c6.2,0,12.6-.7,19-2.1l17.7-3.8,108.7,398.3Z"/>
  <path class="cls-2" d="M341.9,585.8l-69.4-199.3h-31.8l86.1,223.9h30.2l87-223.9h-30l-72.1,199.3Z"/>
  <path class="cls-2" d="M475.3,386.5h29.4v223.9h-29.4v-223.9h0Z"/>
  <path class="cls-2" d="M640.3,386.5h-83.8v223.9h29.4v-91h57c27.7,0,83.2-6.4,83.2-68.1,0-61.8-50.9-64.8-85.8-64.8Zm3,106.4h-57.4v-80h54.9c27.4,0,54.9,3.9,54.9,39.2,.1,35.4-32.3,40.8-52.4,40.8Z"/>
</svg>