<?xml version="1.0" encoding="UTF-8"?>
<svg id="Layer_1" data-name="Layer 1" xmlns="http://www.w3.org/2000/svg" xmlns:xlink="http://www.w3.org/1999/xlink" viewBox="0 0 113.99 38.55">
  <defs>
    <style>
      .cls-1 {
        fill: yellow;
        opacity: .3;
      }

      .cls-2 {
        fill: url(#radial-gradient);
        opacity: .3;
      }

      .cls-3 {
        fill: url(#linear-gradient);
        opacity: .3;
      }
    </style>
    <radialGradient id="radial-gradient" cx="90.34" cy="24.02" fx="103.92" fy="24.02" r="14" gradientUnits="userSpaceOnUse">
       <stop offset=".42" stop-color="#fbbf24"/>
    </radialGradient>
    <linearGradient id="linear-gradient" x1="93.66" y1="20" x2="111.67" y2="1.41" gradientUnits="userSpaceOnUse">
      <stop offset="0" stop-color="#fff"/>
      <stop offset=".81" stop-color="#cbd5e1"/>
    </linearGradient>
  </defs>
  <path class="cls-2" d="M100.22,9.64c-1.16-.49-2.08,.3-6.19,1.79-2.29,.83-4.64,1.68-7.06,2.11-5.58,.99-7.58-.98-9.14,.44-2.28,2.09,.12,8.08,1.63,11.86,.81,2.02,5.29,13.21,9.86,12.69,2.17-.25,2.21-2.88,5.4-3.94,3.77-1.25,5.93,1.68,8.01,.47,1.5-.88,1.36-3.02-.09-17.53-.47-4.65-.75-7.19-2.42-7.89Zm-21.04,10.32l-.37-3.13c-.08-.7,.42-1.33,1.11-1.42l.39-.05c.7-.08,1.33,.42,1.42,1.11l.37,3.13c.08,.7-.42,1.33-1.11,1.42l-.39,.05c-.7,.08-1.33-.42-1.42-1.11Zm1.01,3.93c-.27-.65,.04-1.4,.69-1.66l.36-.15c.65-.27,1.4,.04,1.66,.69l1.2,2.91c.27,.65-.04,1.4-.69,1.66l-.36,.15c-.65,.27-1.4-.04-1.66-.69l-1.2-2.91Zm7.05,10.03l-.32,.23c-.57,.41-1.37,.28-1.78-.29l-1.83-2.56c-.41-.57-.28-1.37,.29-1.78l.32-.23c.57-.41,1.37-.28,1.78,.29l1.83,2.56c.41,.57,.28,1.37-.29,1.78Zm14.14-5.69l.37,3.13c.08,.7-.42,1.33-1.11,1.42l-.39,.05c-.7,.08-1.33-.42-1.42-1.11l-.37-3.13c-.08-.7,.42-1.33,1.11-1.42l.39-.05c.7-.08,1.33,.42,1.42,1.11Zm-.71-7.24l.37,3.13c.08,.7-.42,1.33-1.11,1.42l-.39,.05c-.7,.08-1.33-.42-1.42-1.11l-.37-3.13c-.08-.7,.42-1.33,1.11-1.42l.39-.05c.7-.08,1.33,.42,1.42,1.11Zm-.8-7.68l.37,3.13c.08,.7-.42,1.33-1.11,1.42l-.39,.05c-.7,.08-1.33-.42-1.42-1.11l-.37-3.13c-.08-.7,.42-1.33,1.11-1.42l.39-.05c.7-.08,1.33,.42,1.42,1.11Z"/>
  <path class="cls-3" d="M113.24,4.1c-.92-.86-2.05-.44-6.43-.46-.87,0-1.51-.37-2.13,0-1.16,.69-.58,2.45-1.71,3.18-.91,.59-2.52,.23-3.19-.64-.71-.91,0-1.87-.32-2.99-.7-2.42-5.66-4-8.73-2.75-2.86,1.17-2.68,7.62-2.57,11.69,.06,2.18,.4,14.23,4.87,15.32,2.12,.52,3.07-1.94,6.43-1.83,3.97,.13,4.99,3.63,7.35,3.2,1.72-.31,2.32-2.36,5.97-16.48,1.17-4.52,1.78-7.01,.46-8.24Zm-23.31,2.41l.73-3.06c.16-.68,.85-1.11,1.54-.94l.38,.09c.68,.16,1.11,.85,.94,1.54l-.73,3.06c-.16,.68-.85,1.11-1.54,.94l-.38-.09c-.68-.16-1.11-.85-.94-1.54Zm-.41,4.04c-.03-.7,.52-1.3,1.22-1.32l.39-.02c.7-.03,1.3,.52,1.32,1.22l.12,3.15c.03,.7-.52,1.3-1.22,1.32l-.39,.02c-.7,.03-1.3-.52-1.32-1.22l-.12-3.15Zm3.15,11.85l-.38,.1c-.68,.19-1.38-.21-1.57-.89l-.84-3.04c-.19-.68,.21-1.38,.89-1.57l.38-.1c.68-.19,1.38,.21,1.57,.89l.84,3.04c.19,.68-.21,1.38-.89,1.57Zm15.24-.45l-.73,3.06c-.16,.68-.85,1.11-1.54,.94l-.38-.09c-.68-.16-1.11-.85-.94-1.54l.73-3.06c.16-.68,.85-1.11,1.54-.94l.38,.09c.68,.16,1.11,.85,.94,1.54Zm1.83-7.04l-.73,3.06c-.16,.68-.85,1.11-1.54,.94l-.38-.09c-.68-.16-1.11-.85-.94-1.54l.73-3.06c.16-.68,.85-1.11,1.54-.94l.38,.09c.68,.16,1.11,.85,.94,1.54Zm1.91-7.48l-.73,3.06c-.16,.68-.85,1.11-1.54,.94l-.38-.09c-.68-.16-1.11-.85-.94-1.54l.73-3.06c.16-.68,.85-1.11,1.54-.94l.38,.09c.68,.16,1.11,.85,.94,1.54Z"/>
  <g>
    <path class="cls-1" d="M13.25,8.76c.18,.18,.38,.31,.61,.41s.47,.15,.73,.15,.5-.05,.74-.15,.44-.24,.62-.41,.31-.38,.41-.62,.15-.48,.15-.74-.05-.5-.15-.74-.24-.44-.41-.62-.38-.31-.62-.41-.48-.15-.74-.15-.5,.05-.73,.15-.43,.24-.61,.41-.31,.38-.41,.62-.15,.48-.15,.74,.05,.5,.15,.74,.24,.44,.41,.62Z"/>
    <path class="cls-1" d="M18.38,8.76c.18,.18,.38,.31,.62,.41s.48,.15,.74,.15,.5-.05,.73-.15,.43-.24,.6-.41,.3-.38,.4-.62,.15-.48,.15-.74-.05-.5-.15-.74-.23-.44-.4-.62-.37-.31-.6-.41-.47-.15-.73-.15-.5,.05-.74,.15-.44,.24-.62,.41-.31,.38-.41,.62-.15,.48-.15,.74,.05,.5,.15,.74,.24,.44,.41,.62Z"/>
    <path class="cls-1" d="M23.64,9.15c.18,.18,.38,.31,.61,.41s.47,.15,.73,.15,.5-.05,.74-.15,.44-.24,.62-.41,.31-.38,.41-.62,.15-.48,.15-.74-.05-.5-.15-.74-.24-.44-.41-.62-.38-.31-.62-.41-.48-.15-.74-.15-.5,.05-.73,.15-.43,.24-.61,.41-.31,.38-.41,.62-.15,.48-.15,.74,.05,.5,.15,.74,.24,.44,.41,.62Z"/>
    <path class="cls-1" d="M36.02,29.15c-.18-.17-.38-.3-.61-.4s-.47-.15-.73-.15-.5,.05-.73,.15-.43,.23-.61,.4-.31,.37-.41,.6-.15,.47-.15,.73,.05,.52,.15,.76,.24,.44,.41,.62,.38,.31,.61,.41,.47,.15,.73,.15,.5-.05,.73-.15,.43-.24,.61-.41,.31-.38,.41-.62,.15-.49,.15-.76-.05-.5-.15-.73-.24-.43-.41-.6Z"/>
    <path class="cls-1" d="M41.13,29.15c-.17-.17-.37-.3-.61-.4s-.48-.15-.74-.15-.5,.05-.73,.15-.43,.23-.61,.4-.31,.37-.41,.6-.15,.47-.15,.73,.05,.52,.15,.76,.24,.44,.41,.62,.38,.31,.61,.41,.47,.15,.73,.15,.5-.05,.74-.15,.44-.24,.61-.41,.3-.38,.4-.62,.15-.49,.15-.76-.05-.5-.15-.73-.23-.43-.4-.6Z"/>
    <path class="cls-1" d="M64.6,11.4c-.13-.13-.29-.2-.49-.2h-2.44c-.2,0-.37,.07-.5,.2s-.2,.3-.2,.5v10.69h-13.25V11.9c0-.2-.07-.37-.21-.5s-.3-.2-.49-.2h-2.41c-.2,0-.37,.07-.51,.2s-.21,.3-.21,.5v10.69h-13.2V11.9c0-.2-.07-.37-.21-.5s-.31-.2-.51-.2h-2.41c-.2,0-.37,.07-.5,.2s-.2,.3-.2,.5v10.69h-5.45V11.9c0-.2-.07-.37-.21-.5s-.31-.2-.51-.2h-2.41c-.2,0-.36,.07-.49,.2s-.19,.3-.19,.5v10.69h-5.22v-6.96c0-1.58-.34-2.72-1.02-3.42s-1.67-1.05-2.97-1.05H4.03c-1.29,0-2.28,.35-2.98,1.05s-1.05,1.84-1.05,3.42v6.28c0,.8,.09,1.48,.26,2.05s.44,1.03,.78,1.39,.77,.62,1.27,.79,1.07,.25,1.71,.25h4.8c-.18,1.05-.45,1.9-.83,2.54s-.82,1.12-1.32,1.46-1.04,.55-1.63,.66-1.19,.16-1.78,.16c-.34,0-.69,0-1.05-.03s-.7-.03-1.02-.03c-.2,0-.37,.07-.5,.21s-.2,.31-.2,.51v2.41c0,.18,.08,.33,.24,.46s.34,.21,.54,.25l1.76,.09c1.3,0,2.49-.19,3.56-.56s2.01-.93,2.82-1.66,1.47-1.64,1.98-2.72,.85-2.33,1.01-3.74H60.75c1.3,0,2.3-.35,3-1.05s1.05-1.84,1.05-3.44V11.9c0-.2-.06-.37-.19-.5ZM8.54,22.58H3.81v-7.63h4.73v7.63Z"/>
    <path class="cls-1" d="M55.82,29.15c-.18-.17-.38-.3-.62-.4s-.48-.15-.74-.15-.5,.05-.73,.15-.43,.23-.61,.4-.31,.37-.41,.6-.15,.47-.15,.73,.05,.52,.15,.76,.24,.44,.41,.62,.38,.31,.61,.41,.47,.15,.73,.15,.5-.05,.74-.15,.44-.24,.62-.41,.31-.38,.41-.62,.15-.49,.15-.76-.05-.5-.15-.73-.24-.43-.41-.6Z"/>
  </g>
</svg>